<?xml version="1.0" encoding="UTF-8"?>
<!-- Generator: Adobe Illustrator 21.1.0, SVG Export Plug-In . SVG Version: 6.00 Build 0)  -->
<svg version="1.1" id="Layer_1" xmlns="http://www.w3.org/2000/svg" xmlns:xlink="http://www.w3.org/1999/xlink" x="0px" y="0px" width="96" height="96" viewBox="0 0 65 50" style="enable-background:new 0 0 50 176;" xml:space="preserve">
<style type="text/css">
	.st0{fill:currentColor;}
</style>
<g>
	<g>
		<path class="st0" d="M33.9,0C20.7,0,10,10.1,8.9,23l13.4,5.5c1.1-0.8,2.5-1.2,4-1.2c0.1,0,0.3,0,0.4,0l6-8.6c0,0,0-0.1,0-0.1    c0-5.2,4.2-9.4,9.4-9.4c5.2,0,9.4,4.2,9.4,9.4c0,5.2-4.2,9.4-9.4,9.4c-0.1,0-0.1,0-0.2,0L33.4,34c0,0.1,0,0.2,0,0.3    c0,3.9-3.2,7.1-7.1,7.1c-3.4,0-6.3-2.4-6.9-5.7l-9.6-4C12.8,42.3,22.4,50,33.9,50c13.8,0,25-11.2,25-25C58.9,11.2,47.7,0,33.9,0z"/>
		<path class="st0" d="M24.6,37.9l-3.1-1.3c0.5,1.1,1.5,2.1,2.7,2.6c2.7,1.1,5.8-0.2,6.9-2.9c0.5-1.3,0.5-2.8,0-4.1    c-0.5-1.3-1.6-2.3-2.9-2.9c-1.3-0.5-2.7-0.5-3.9-0.1l3.2,1.3c2,0.8,2.9,3.1,2.1,5.1C28.9,37.8,26.6,38.8,24.6,37.9z"/>
		<path class="st0" d="M48.4,18.6c0-3.5-2.8-6.3-6.3-6.3c-3.5,0-6.3,2.8-6.3,6.3c0,3.5,2.8,6.3,6.3,6.3C45.6,24.8,48.4,22,48.4,18.6    z M37.4,18.5c0-2.6,2.1-4.7,4.7-4.7c2.6,0,4.7,2.1,4.7,4.7c0,2.6-2.1,4.7-4.7,4.7C39.5,23.3,37.4,21.2,37.4,18.5z"/>
	</g>
</g>
</svg>