<svg xmlns="http://www.w3.org/2000/svg" width="64" height="64" viewBox="0 0 16 16" fill="none" aria-labelledby="a7b501z2oot1doa8eitwk4gtxjz4wsg8" class="octicon flex-shrink-0">
  <path d="M15.666 3.749a2.005 2.005 0 0 0-1.415-1.415C13.003 2 8 2 8 2s-5.003 0-6.251.334A2.005 2.005 0 0 0 .334 3.75C0 4.997 0 8.4 0 8.4s0 3.403.334 4.651c.184.688.727 1.23 1.415 1.415C2.997 14.8 8 14.8 8 14.8s5.003 0 6.251-.334a2.003 2.003 0 0 0 1.415-1.415C16 11.803 16 8.4 16 8.4s0-3.403-.334-4.651ZM6.4 10.479V6.321a.4.4 0 0 1 .6-.347l3.6 2.079a.4.4 0 0 1 0 .692L7 10.825a.4.4 0 0 1-.6-.347Z" fill="currentColor"/>
</svg>
