<svg xmlns="http://www.w3.org/2000/svg" width="96" height="96" viewBox="0 0 768 768" style="enable-background:new 0 0 768 768" xml:space="preserve">
	<path d="M383.6 767.9c-126.7 0-253.5 0-380.2.1-2.8 0-3.4-.6-3.4-3.4C.1 510.9.1 257.1 0 3.4 0 .6.6 0 3.4 0c253.7.1 507.4.1 761.1 0 2.8 0 3.4.6 3.4 3.4-.1 253.7-.1 507.4 0 761.1 0 2.8-.6 3.4-3.4 3.4H383.6z" style="fill:#bd8a6b"/>
	<path d="M649.7 336.3c-11.9-81.6-75.9-186.4-200-212.6-5.6-1.2-11.1-2.9-17-3 .1.8.1 1.1.2 1.4 17.7 26.9 23.4 56.4 19.5 88.2-3 24.6-11 47.6-20.8 70.1-12.1 28-28.4 53.8-44.2 79.9-15.6 25.6-30.1 51.8-40.9 79.8-13.9 36.2-22.1 73.3-17.4 112.3 4.5 37.5 19.8 69.5 49 94.2 4.1 3.5 8.4 5.3 13.6 5.3.5 0 1 0 1.5-.1 10-.7 20-1.2 29.9-2.2 4.9-.5 10.1-.5 14.7-3.5-2.3-2.3-4.9-3.1-7.2-4.2-12.1-5.6-23.6-12.4-34.4-20.2-17.2-12.4-31.8-27-38.7-47.7-9.1-27.1-5.1-52.1 12.1-75.1 2.2-2.9 4.5-4.8 7.6-4.8 1 0 2.1.2 3.4.6 4.4 1.5 9.1 2.1 13.6 3.3 14.1 3.6 28.3 7.1 42.9 11.7-1.5 1.7-2.6 2.7-3.5 3.9-1 1.3-1.8 2.8-2.6 4.2-9.7 17.3-14.9 35.9-16.4 55.6-1.8 22.9 4.6 43.3 19.1 61.3 4.9 6.1 9.9 9.2 16.3 9.2 2.6 0 5.4-.5 8.6-1.5 43-13.8 81.3-35.7 112.6-67.9 64.5-66.4 92-146.1 78.5-238.2zm-126 125.2c-11.3 16-23.6 31.5-34 48.1-22.1 35.4-26.7 72.8-12.4 112.3.6 1.7 1.5 3.3 1.2 5.6-4.1-1-6.9-3.9-9.9-6.3-16.4-13.5-30.5-28.9-36.8-49.8-4.5-14.8-4.3-29.9-1.5-45 .6-3.3 2-6.3 3.9-9.1 2.6-3.9 5.6-6.3 9.9-6.3 1.1 0 2.2.1 3.4.4 2.8.7 5.7.8 8.6.8h3.9c12.5-.1 20.7-8 21.1-20.5.2-6.3.3-12.7 2.1-18.8 1.7-5.8 4.6-10.3 10.6-12.9 10-4.3 11.1-11.2 3.8-21.7 5.9-.4 9.6-3.5 12.7-7.7 3-4.1 3.3-7.8-.2-12.1-5.2-6.2-4.1-13.4 2.3-18.2 5.2-3.9 10.6-7.5 15.8-11.4 1.9-1.4 3.6-3 5.2-4.7 5.3-5.9 5.1-9.6-.9-14.8-15.2-13.1-27.1-28.7-35.7-46.9-5.1-10.9-7.2-22.1-1.7-33.2 12.6-26 13.9-52.3 3.9-79.6 1.7 2.1 3.4 4.1 5 6.2 1.6 2.1 3.2 4.2 4.7 6.4 22.4 33.2 38.4 69 44 109.1 6.6 47.2-1.2 90.6-29 130.1z"/>
	<path d="M315.7 636.6c-16.7-12.7-31.1-27.8-42.5-45.4-29.1-45-29.7-92.4-9.4-140.7 13-30.9 33.6-56.9 54.9-82.4 15.8-18.9 32.1-37.4 46.1-57.8 26.8-39.2 47.8-80.8 51.8-129.1 1.4-16.4 2.2-33-3.7-48.9-5.5-14.9-7.6-16.1-23.4-16.1h-1c-3.2-.5-4.4.7-4.3 4.1.2 6.5-.2 13-.2 19.5 0 23.5-2.9 46.4-11.1 68.6-10.5 28-26.3 53-43.5 77.2-18.8 26.6-38.8 52.5-55.9 80.3-14.7 23.9-27.4 48.8-32.7 76.7-1.6 8.3-2.5 16.8-3.7 25.7-3.1-1.9-4.1-4.5-5.3-6.7-13.6-25-17.5-51.8-14.1-79.8 3.8-31.5 15.9-60 31.7-87.1 12.1-20.8 26.9-39.7 39.8-59.9 14.2-22.2 27.6-44.8 36.4-69.8 4.4-12.6 7.1-25.6 8.1-39 .5-5.9-.6-6.9-6.4-5.8-2.6.5-5.2 1.2-7.8 1.8C181.8 153.5 81 292.4 125.7 449.8c26.4 93.1 86 157.7 179.2 188.8 5.5 1.8 11 3.8 17.4 4.4-1.8-3.4-4.4-4.7-6.6-6.4z"/>
</svg>