<svg xmlns="http://www.w3.org/2000/svg" aria-hidden="true" focusable="false" width="128" height="128" viewBox="0 0 400 400">
  <rect width="100%" height="100%" fill="#BD8A6B" rx="24" />
  <path d="M199.826 95.139c-.191.191-.348 4.117-.35 8.724-.008 23.168-4.769 34.539-28.033 66.953-19.655 27.385-26.375 40.484-28.403 55.363-.852 6.249-.962 6.368-2.706 2.928-11.073-21.853-6.031-45.048 17.113-78.722 15.398-22.403 21.749-36.101 23.054-49.725.456-4.76.218-4.881-6.487-3.281-26.013 6.208-48.489 22.068-63.291 44.66-36.712 56.036-8.061 135.544 56.633 157.158 10.04 3.355 11.201 3.013 5.238-1.541-17.271-13.191-26.131-32.555-24.141-52.761 1.702-17.279 8.724-30.033 31.46-57.135 15.75-18.774 24.182-32.746 29.393-48.697 5.779-17.694 5.2-38.077-1.226-43.131-1.436-1.13-7.349-1.698-8.254-.793m18.797 1.516c-.155.155.85 2.436 2.233 5.069 4.802 9.138 5.388 11.64 5.388 23.016.001 18.797-4.523 30.978-23.013 61.965-4.44 7.441-9.315 15.878-10.834 18.75-20.4 38.573-19.565 73.493 2.262 94.659 5.75 5.575 7.166 5.845 20.966 3.993 7.324-.983 7.442-1.46 1.121-4.504-25.766-12.407-35.52-33.625-23.846-51.875 3.285-5.134 2.239-5.091 18.558-.763 9.271 2.458 8.756 2.226 7.653 3.445-8.169 9.027-9.85 31.967-3.176 43.354 4.992 8.517 7.327 9.467 16.082 6.537 60.155-20.129 90.349-89.966 63.324-146.462-13.736-28.716-37.417-48.138-67.519-55.374-8.905-2.141-8.874-2.135-9.199-1.81m30.642 41.758c11.433 17.334 16.903 34.765 16.871 53.755-.03 17.093-3.883 26.907-18.402 46.872-14.912 20.505-18.359 35.109-12.35 52.318.591 1.692 1.074 3.17 1.074 3.285 0 2.255-12.435-10.975-15.092-16.057-4.602-8.799-5.073-22.106-.948-26.803l1.563-1.781 4.285.329c8.446.65 10.956-1.464 12.026-10.132.829-6.711 1.634-8.571 4.297-9.93 3.834-1.957 5.199-5.425 3.064-7.785-.873-.965-.859-1.018.359-1.323 3.436-.863 5.441-5.488 3.467-7.998-2.218-2.819-1.507-4.786 2.865-7.932 8.45-6.081 9.36-8.335 4.884-12.101-12.235-10.294-16.761-22.655-12.265-33.495 3.145-7.584 3.622-17.302 1.182-24.109-1.109-3.093-.378-2.417 3.12 2.887"/>
</svg>
